<?xml version="1.0" encoding="UTF-8" standalone="no"?><!DOCTYPE svg PUBLIC "-//W3C//DTD SVG 1.1//EN" "http://www.w3.org/Graphics/SVG/1.1/DTD/svg11.dtd"><svg width="100%" height="100%" viewBox="0 0 159 123" version="1.1" xmlns="http://www.w3.org/2000/svg" xmlns:xlink="http://www.w3.org/1999/xlink" xml:space="preserve" xmlns:serif="http://www.serif.com/" style="fill-rule:evenodd;clip-rule:evenodd;stroke-linejoin:round;stroke-miterlimit:2;"><path d="M150.551,53.878c-3.939,0.632 -11.189,-0.313 -17.02,1.105c-5.832,1.418 -8.983,5.674 -11.032,6.934c-2.049,1.261 -8.51,2.363 -17.178,2.049c-1.587,-0.058 -2.943,-0.111 -4.121,-0.164c-0,-0.029 0.003,-0.058 0.003,-0.087c0,-2.999 -0.506,-5.661 -1.117,-7.832c3.378,1.499 7.543,2.602 12.077,2.602c1.868,0 3.701,-0.196 5.456,-0.579c8.773,-1.922 15.075,-10.528 16.592,-13.391c0.586,-1.107 2.268,-2.805 3.189,-3.612c0.701,-0.615 0.978,-1.581 0.706,-2.472c-0.269,-0.891 -1.037,-1.541 -1.96,-1.662c-0.002,0 -2.576,-0.335 -4.146,-0.559c-0.545,-0.078 -1.613,-0.639 -2.846,-1.289c-1.024,-0.537 -2.299,-1.206 -3.842,-1.908c-3.601,-1.637 -9.09,-1.882 -12.043,-1.882c-1.629,0 -3.266,0.075 -4.73,0.213c-2.588,0.247 -5.038,0.944 -7.058,1.664c4.711,-5.542 5.578,-12.602 2.37,-20.504c-3.313,-8.156 -10.772,-11.628 -11.091,-11.773l-0.097,-0.044c-0.715,-0.326 -1.453,-0.662 -2.28,-0.662c-0.971,0 -1.837,0.48 -2.318,1.284c-0.85,1.425 -0.128,3.016 0.616,4.396c1.188,2.205 1.314,10.092 0.203,12.594c-0.912,2.052 -3.571,4.817 -5.116,5.857c-1.217,-1.483 -3.047,-2.362 -4.658,-2.61c-1.615,-0.249 -6.493,-0.704 -9.611,-0.704c-3.385,-0 -9.736,0.738 -11.054,0.926c-1.872,0.268 -3.252,1.446 -4.207,2.552c-1.605,-0.983 -4.211,-3.382 -5.409,-6.753c-1.537,-4.322 -0.393,-9.73 -0.135,-10.537c0.065,-0.136 0.174,-0.328 0.297,-0.549c0.958,-1.731 1.948,-3.522 0.986,-5.154c-0.489,-0.83 -1.381,-1.327 -2.385,-1.327c-0.875,0 -1.844,0.365 -3.244,1.218c-5.313,3.24 -14.148,13.473 -12.845,22.337c0.602,4.091 2.676,7.338 4.926,9.752c-3.428,-1.022 -8.353,-2.108 -11.31,-2.198c-4.087,-0.121 -10.654,0.759 -15.673,3.575c-3.776,2.118 -6.688,2.179 -7.001,2.18c-0.847,-0.038 -1.613,0.384 -2.064,1.08c-0.451,0.697 -0.505,1.577 -0.143,2.323c0.125,0.259 3.146,6.4 8.787,11.449c5.209,4.659 10.989,7.022 17.182,7.022c1.382,-0 2.796,-0.121 4.202,-0.36c2.802,-0.476 5.503,-1.561 7.684,-2.653c-0.638,3.134 -1.305,7.067 -1.423,10.271c-0.202,5.454 2.501,12.539 8.262,21.661c2.936,4.65 2.957,12.021 2.97,16.898c0.004,1.192 0.007,2.221 0.052,3.062c0.251,4.653 2.74,10.834 8.936,12.947c2.252,0.768 6.877,2.055 12.555,2.055c4.047,-0 7.808,-0.665 11.181,-1.976c4.083,-1.589 6.293,-4.366 7.494,-7.373c0.567,0.175 1.148,0.342 1.757,0.494c13.868,3.468 28.997,2.522 38.926,-1.733c9.929,-4.255 11.662,-11.347 10.086,-17.808c-1.576,-6.461 -8.353,-11.03 -10.874,-13.395c8.511,3.782 15.129,4.098 20.645,-2.206c5.517,-6.305 5.674,-13.554 6.461,-18.123c0.788,-4.571 3.153,-8.825 3.153,-8.825c-0,-0 -3.782,1.575 -7.723,2.204Zm-71.642,62.348c-2.824,1.098 -6.007,1.655 -9.464,1.655c-5.181,-0 -9.436,-1.261 -11.027,-1.803c-3.953,-1.347 -5.553,-5.385 -5.732,-8.716c-0.038,-0.721 -0.041,-1.694 -0.045,-2.819c-0.015,-5.421 -0.038,-13.612 -3.703,-19.417c-5.162,-8.172 -7.696,-14.549 -7.532,-18.955c0.212,-5.759 2.496,-14.635 2.519,-14.723c0.252,-0.972 -0.136,-1.995 -0.967,-2.556c-0.401,-0.272 -0.864,-0.407 -1.328,-0.407c-0.494,-0 -0.987,0.155 -1.406,0.461c-0.051,0.039 -5.28,3.856 -10.609,4.76c-6.258,1.063 -12.152,-0.798 -17.43,-5.521c-2.675,-2.394 -4.704,-5.12 -6.004,-7.119c1.56,-0.393 3.488,-1.074 5.584,-2.249c4.158,-2.334 9.739,-3.076 13.21,-2.971c3.307,0.101 10.425,1.894 12.526,2.839c2.633,1.186 4.933,1.642 6.563,1.281c1.35,-0.3 2.313,-1.257 2.514,-2.497c0.226,-1.388 -0.536,-2.755 -2.058,-3.667c-2.215,-1.33 -7.464,-5.057 -8.328,-10.936c-0.728,-4.952 3.564,-11.329 7.515,-15.121c-0.467,2.759 -0.796,7.324 0.658,11.409c1.949,5.483 7.115,9.993 10.433,10.36c0.859,0.096 1.713,-0.289 2.208,-1.006c0.625,-0.903 1.431,-1.952 2.112,-2.049c1.429,-0.205 7.46,-0.88 10.381,-0.88c2.848,0 7.442,0.428 8.891,0.649c0.762,0.118 1.724,0.664 1.95,1.342c0.204,0.615 0.653,1.119 1.239,1.396c0.459,0.216 0.961,0.325 1.494,0.325c3.802,-0 8.91,-6.297 10.141,-9.067c1.192,-2.683 1.532,-8.703 0.762,-13.118c1.872,1.498 4.132,3.851 5.484,7.18c3.456,8.509 1.149,15.218 -6.907,19.973c-1.995,1.178 -2.173,2.531 -1.973,3.46c0.203,0.932 0.925,2.094 3.218,2.34c0.175,0.018 0.385,0.03 0.625,0.03c0.508,0 2.328,-0.066 4.439,-0.912c0.27,-0.106 0.602,-0.249 0.991,-0.415c1.914,-0.822 5.478,-2.351 9.135,-2.7c1.318,-0.126 2.799,-0.192 4.281,-0.192c4.306,-0 8.076,0.544 10.082,1.457c1.42,0.644 2.578,1.253 3.599,1.79c1.6,0.841 2.796,1.47 4.022,1.722c-0.361,0.479 -0.692,0.975 -0.949,1.459c-1.018,1.921 -6.276,9.414 -13.419,10.98c-1.42,0.311 -2.914,0.469 -4.441,0.469c-6.316,-0 -11.854,-2.619 -14.676,-4.862c-0.088,-0.07 -0.182,-0.135 -0.28,-0.192c-0.459,-0.267 -0.912,-0.397 -1.388,-0.397c-0.79,-0 -1.591,0.424 -2.03,1.083c-0.783,1.172 -0.329,2.263 0.245,3.643c0.837,2.01 2.377,5.725 2.426,10.467c-1.828,-0.198 -2.888,-0.473 -4.062,-0.942c-2.363,-0.945 -3.31,-3.939 -6.774,-5.988c-3.469,-2.049 -15.603,-2.681 -21.434,-2.994c-5.831,-0.316 -8.667,-1.734 -8.667,-1.734c3.623,4.57 3.623,14.814 6.145,20.803c1.259,2.99 3.468,9.455 10.401,10.873c6.934,1.419 13.555,-2.679 13.555,-2.679c-0,0 -7.881,5.988 -10.246,11.505c-1.94,4.526 -1.664,13.992 8.367,19.169c-0.827,2.076 -2.274,3.728 -4.836,4.724Zm27.988,-3.601c-7.138,0 -12.925,-4.531 -12.925,-10.121c-0,-5.59 5.787,-10.122 12.925,-10.122c7.138,-0 12.925,4.532 12.925,10.122c0,5.59 -5.787,10.121 -12.925,10.121" style="fill:#fff;fill-rule:nonzero;"/></svg>