<?xml version="1.0" encoding="UTF-8" standalone="no"?><!DOCTYPE svg PUBLIC "-//W3C//DTD SVG 1.1//EN" "http://www.w3.org/Graphics/SVG/1.1/DTD/svg11.dtd"><svg width="100%" height="100%" viewBox="0 0 213 165" version="1.1" xmlns="http://www.w3.org/2000/svg" xmlns:xlink="http://www.w3.org/1999/xlink" xml:space="preserve" xmlns:serif="http://www.serif.com/" style="fill-rule:evenodd;clip-rule:evenodd;stroke-linejoin:round;stroke-miterlimit:2;"><path d="M201.734,72.195c-5.279,0.846 -14.994,-0.42 -22.806,1.48c-7.814,1.9 -12.037,7.603 -14.784,9.292c-2.744,1.689 -11.402,3.166 -23.017,2.745c-2.126,-0.078 -3.943,-0.148 -5.522,-0.219c-0,-0.039 0.004,-0.078 0.004,-0.117c0,-4.018 -0.678,-7.586 -1.497,-10.496c4.527,2.009 10.107,3.488 16.184,3.488c2.502,0 4.959,-0.262 7.31,-0.776c11.755,-2.575 20.2,-14.107 22.233,-17.943c0.786,-1.484 3.039,-3.76 4.272,-4.841c0.94,-0.823 1.311,-2.117 0.947,-3.311c-0.36,-1.195 -1.39,-2.066 -2.626,-2.228c-0.003,0 -3.453,-0.449 -5.556,-0.749c-0.73,-0.104 -2.161,-0.857 -3.814,-1.726c-1.371,-0.721 -3.08,-1.617 -5.148,-2.558c-4.825,-2.193 -12.18,-2.521 -16.137,-2.521c-2.183,-0 -4.376,0.099 -6.338,0.285c-3.467,0.331 -6.751,1.265 -9.457,2.229c6.313,-7.425 7.474,-16.886 3.175,-27.475c-4.44,-10.928 -14.434,-15.58 -14.861,-15.774l-0.131,-0.06c-0.958,-0.436 -1.946,-0.887 -3.055,-0.887c-1.3,0 -2.461,0.644 -3.105,1.721c-1.139,1.909 -0.172,4.041 0.825,5.89c1.592,2.955 1.761,13.524 0.272,16.876c-1.222,2.749 -4.784,6.455 -6.855,7.848c-1.631,-1.987 -4.084,-3.164 -6.242,-3.497c-2.164,-0.334 -8.7,-0.944 -12.879,-0.944c-4.535,0 -13.045,0.989 -14.811,1.241c-2.509,0.36 -4.358,1.937 -5.637,3.42c-2.152,-1.317 -5.643,-4.532 -7.249,-9.049c-2.059,-5.791 -0.527,-13.038 -0.181,-14.119c0.088,-0.183 0.234,-0.439 0.398,-0.736c1.284,-2.32 2.611,-4.72 1.322,-6.906c-0.655,-1.113 -1.851,-1.778 -3.196,-1.778c-1.172,-0 -2.472,0.489 -4.347,1.632c-7.119,4.341 -18.958,18.053 -17.211,29.931c0.806,5.482 3.585,9.833 6.6,13.068c-4.594,-1.371 -11.192,-2.825 -15.155,-2.945c-5.477,-0.163 -14.277,1.016 -21.002,4.79c-5.059,2.838 -8.962,2.919 -9.381,2.921c-1.134,-0.051 -2.162,0.514 -2.766,1.446c-0.604,0.934 -0.677,2.113 -0.192,3.114c0.169,0.347 4.217,8.576 11.775,15.34c6.98,6.244 14.725,9.41 23.023,9.41c1.853,-0 3.747,-0.162 5.631,-0.482c3.755,-0.638 7.374,-2.092 10.296,-3.555c-0.854,4.199 -1.748,9.47 -1.906,13.763c-0.271,7.307 3.351,16.801 11.07,29.025c3.935,6.231 3.963,16.108 3.981,22.643c0.004,1.597 0.008,2.976 0.068,4.103c0.337,6.234 3.673,14.517 11.975,17.348c3.017,1.03 9.215,2.754 16.823,2.754c5.423,-0 10.463,-0.892 14.983,-2.648c5.47,-2.129 8.431,-5.85 10.041,-9.88c0.76,0.235 1.539,0.459 2.355,0.662c18.583,4.647 38.855,3.38 52.159,-2.322c13.305,-5.701 15.627,-15.204 13.515,-23.862c-2.111,-8.658 -11.192,-14.78 -14.571,-17.949c11.404,5.067 20.273,5.491 27.664,-2.956c7.392,-8.448 7.603,-18.162 8.657,-24.284c1.057,-6.125 4.225,-11.826 4.225,-11.826c-0,0 -5.068,2.111 -10.348,2.954Zm-95.998,83.544c-3.784,1.471 -8.05,2.217 -12.682,2.217c-6.943,0 -12.644,-1.689 -14.776,-2.415c-5.296,-1.805 -7.441,-7.216 -7.68,-11.68c-0.051,-0.966 -0.055,-2.269 -0.061,-3.777c-0.019,-7.264 -0.051,-18.239 -4.961,-26.017c-6.917,-10.951 -10.313,-19.497 -10.094,-25.4c0.285,-7.717 3.346,-19.611 3.377,-19.729c0.337,-1.301 -0.183,-2.673 -1.297,-3.424c-0.537,-0.366 -1.157,-0.546 -1.779,-0.546c-0.662,-0 -1.323,0.208 -1.883,0.619c-0.069,0.051 -7.077,5.165 -14.217,6.378c-8.385,1.424 -16.283,-1.07 -23.356,-7.399c-3.584,-3.207 -6.302,-6.86 -8.045,-9.539c2.091,-0.526 4.674,-1.439 7.483,-3.014c5.572,-3.127 13.05,-4.121 17.7,-3.98c4.432,0.134 13.97,2.537 16.785,3.803c3.529,1.589 6.611,2.201 8.795,1.717c1.808,-0.402 3.099,-1.684 3.368,-3.346c0.303,-1.861 -0.718,-3.692 -2.757,-4.913c-2.969,-1.783 -10.002,-6.776 -11.16,-14.655c-0.975,-6.636 4.775,-15.18 10.07,-20.261c-0.626,3.696 -1.066,9.814 0.881,15.287c2.612,7.347 9.535,13.39 13.98,13.882c1.151,0.129 2.296,-0.387 2.959,-1.347c0.838,-1.21 1.918,-2.616 2.83,-2.746c1.915,-0.274 9.997,-1.178 13.91,-1.178c3.817,-0 9.972,0.572 11.914,0.869c1.022,0.158 2.31,0.89 2.613,1.797c0.274,0.825 0.875,1.5 1.66,1.872c0.615,0.288 1.289,0.434 2.003,0.434c5.094,0 11.938,-8.437 13.588,-12.148c1.598,-3.596 2.053,-11.662 1.02,-17.579c2.509,2.008 5.537,5.16 7.35,9.622c4.63,11.401 1.539,20.391 -9.256,26.763c-2.673,1.578 -2.912,3.391 -2.643,4.636c0.271,1.249 1.238,2.805 4.312,3.136c0.234,0.023 0.516,0.04 0.838,0.04c0.679,0 3.119,-0.088 5.947,-1.222c0.362,-0.143 0.807,-0.334 1.328,-0.557c2.565,-1.101 7.341,-3.15 12.241,-3.617c1.766,-0.169 3.75,-0.258 5.736,-0.258c5.77,0 10.822,0.73 13.51,1.953c1.903,0.863 3.454,1.679 4.822,2.398c2.144,1.128 3.747,1.97 5.39,2.308c-0.485,0.642 -0.928,1.306 -1.272,1.955c-1.364,2.574 -8.409,12.614 -17.981,14.712c-1.903,0.417 -3.905,0.629 -5.95,0.629c-8.464,-0 -15.885,-3.51 -19.666,-6.515c-0.119,-0.094 -0.244,-0.18 -0.376,-0.257c-0.614,-0.358 -1.222,-0.532 -1.859,-0.532c-1.059,-0 -2.132,0.568 -2.721,1.451c-1.048,1.571 -0.441,3.033 0.328,4.882c1.122,2.693 3.186,7.671 3.251,14.025c-2.449,-0.265 -3.869,-0.634 -5.443,-1.261c-3.166,-1.267 -4.434,-5.28 -9.077,-8.024c-4.648,-2.747 -20.907,-3.593 -28.72,-4.013c-7.813,-0.423 -11.613,-2.323 -11.613,-2.323c4.854,6.123 4.854,19.85 8.233,27.875c1.688,4.007 4.647,12.669 13.937,14.569c9.292,1.902 18.163,-3.589 18.163,-3.589c0,-0 -10.56,8.024 -13.728,15.416c-2.6,6.065 -2.231,18.748 11.211,25.686c-1.108,2.782 -3.048,4.995 -6.48,6.33Zm37.503,-4.825c-9.565,0 -17.32,-6.072 -17.32,-13.562c0,-7.49 7.755,-13.563 17.32,-13.563c9.564,-0 17.319,6.073 17.319,13.563c0,7.49 -7.755,13.562 -17.319,13.562" style="fill:#025188;fill-rule:nonzero;"/></svg>