<?xml version="1.0" encoding="UTF-8" standalone="no"?><!DOCTYPE svg PUBLIC "-//W3C//DTD SVG 1.1//EN" "http://www.w3.org/Graphics/SVG/1.1/DTD/svg11.dtd"><svg width="100%" height="100%" viewBox="0 0 475 163" version="1.1" xmlns="http://www.w3.org/2000/svg" xmlns:xlink="http://www.w3.org/1999/xlink" xml:space="preserve" xmlns:serif="http://www.serif.com/" style="fill-rule:evenodd;clip-rule:evenodd;stroke-linejoin:round;stroke-miterlimit:2;"><path d="M140.55,0l-120.538,0.001c-11.035,0 -20.012,9.068 -20.012,20.213l-0,121.716c-0,11.142 8.977,20.214 20.012,20.214l120.538,0c11.028,0 20.005,-9.072 20.005,-20.214l-0,-121.716c-0,-11.145 -8.977,-20.214 -20.005,-20.214" style="fill:#0362a2;fill-rule:nonzero;"/><path d="M136.786,5.062l-113.011,0.001c-10.346,0 -18.762,8.501 -18.762,18.95l0,114.118c0,10.447 8.416,18.951 18.762,18.951l113.011,0c10.341,0 18.756,-8.504 18.756,-18.951l0,-114.118c0,-10.449 -8.415,-18.951 -18.756,-18.951" style="fill:#b9bbc0;fill-rule:nonzero;"/><path d="M151.036,137.493c0,8.193 -6.577,14.85 -14.703,14.85l-110.751,-0c-8.111,-0 -14.699,-6.657 -14.699,-14.85l0,-111.845c0,-8.179 6.588,-14.833 14.699,-14.833l110.751,-0c8.126,-0 14.703,6.654 14.703,14.833l0,111.845Z" style="fill:#0362a2;fill-rule:nonzero;"/><path d="M10.883,29.003c11.131,3.346 24.887,5.976 40.337,7.594c0.634,-0.947 1.208,-1.989 1.618,-3.153c1.684,-4.768 0.424,-10.725 0.157,-11.602c-0.078,-0.159 -0.196,-0.365 -0.322,-0.611c-1.048,-1.905 -2.141,-3.877 -1.084,-5.685c0.53,-0.905 1.511,-1.452 2.595,-1.452c0.96,0 2.022,0.399 3.546,1.335c5.426,3.333 14.19,13.416 14.153,22.682c5.233,0.232 10.595,0.352 16.05,0.352c23.619,-0 45.438,-2.205 63.103,-5.932l0,-6.883c0,-8.178 -6.577,-14.833 -14.703,-14.833l-110.751,0c-8.111,0 -14.699,6.655 -14.699,14.833l0,3.355Z" style="fill:#b62a2d;fill-rule:nonzero;"/><path d="M49.436,38.817c1.127,-1.164 2.246,-2.675 3.03,-4.478c-14.596,-1.497 -27.965,-3.9 -39.22,-7.122c-0.803,-0.232 -1.591,-0.466 -2.363,-0.705l0,5.008c0.352,0.103 0.706,0.206 1.064,0.309c10.845,3.11 23.605,5.459 37.489,6.988" style="fill:#f0d22d;fill-rule:nonzero;"/><path d="M151.036,30.094c-18.112,3.879 -40.034,5.977 -63.103,5.977c-5.491,-0 -10.918,-0.123 -16.246,-0.356c0.208,1.452 0.266,2.899 0.06,4.318c-0.022,0.167 -0.064,0.309 -0.097,0.48c5.349,0.226 10.781,0.35 16.283,0.35c22.964,0 44.854,-2.06 63.103,-5.873l0,-4.896Z" style="fill:#f0d22d;fill-rule:nonzero;"/><path d="M92.828,67.189c-5.773,5.2 -12.191,7.25 -19.025,6.079c-5.8,-1.01 -11.503,-5.212 -11.57,-5.247c-0.462,-0.342 -1.006,-0.505 -1.54,-0.505c-0.502,0 -1.012,0.143 -1.451,0.435c-0.902,0.616 -1.326,1.765 -1.058,2.827c0.034,0.099 2.522,9.859 2.755,16.208c0.184,4.866 -2.579,11.886 -8.211,20.878c-4.012,6.413 -4.021,15.436 -4.045,21.407c0,1.236 -0.006,2.313 -0.04,3.1c-0.195,3.674 -1.958,8.125 -6.264,9.611c-1.732,0.596 -6.378,1.989 -12.033,1.989l-0.05,0l-0,-0.096c-0.374,0.032 -0.746,0.038 -1.11,0.054c-0.376,-0.016 -0.756,-0.022 -1.116,-0.054l-0,0.096l-0.05,0c-5.656,0 -10.305,-1.393 -12.035,-1.989c-2.49,-0.859 -4.127,-2.711 -5.102,-4.83l0,0.341c0,3.561 1.245,6.831 3.318,9.391c0.036,0.013 0.071,0.026 0.108,0.039c2.483,0.838 7.511,2.266 13.711,2.266c0.398,0 0.781,-0.037 1.166,-0.047c0.386,0.01 0.777,0.047 1.16,0.047c6.2,0 11.233,-1.428 13.707,-2.266c6.746,-2.324 9.475,-9.128 9.741,-14.272c0.051,-0.926 0.051,-2.046 0.051,-3.367c0.03,-5.364 0.043,-13.5 3.237,-18.616c6.307,-10.046 9.259,-17.866 9.034,-23.861c-0.145,-3.534 -0.862,-7.877 -1.554,-11.316c2.371,1.197 5.314,2.399 8.383,2.921c1.523,0.256 3.069,0.379 4.577,0.379c6.755,0 13.064,-2.58 18.756,-7.74c6.142,-5.551 9.443,-12.304 9.561,-12.6c0.42,-0.821 0.368,-1.784 -0.139,-2.556c-0.486,-0.77 -1.326,-1.224 -2.248,-1.181c-0.338,0 -3.524,-0.079 -7.639,-2.416c-5.473,-3.103 -12.641,-4.083 -17.094,-3.926c-3.227,0.083 -8.607,1.293 -12.348,2.413c2.459,-2.658 4.724,-6.231 5.376,-10.752c1.408,-9.756 -8.219,-21.041 -14.016,-24.604c-1.525,-0.936 -2.586,-1.335 -3.547,-1.335c-1.084,0 -2.066,0.547 -2.595,1.452c-1.057,1.808 0.036,3.78 1.084,5.685c0.126,0.246 0.243,0.452 0.322,0.611c0.267,0.877 1.527,6.834 -0.156,11.602c-1.309,3.713 -4.156,6.368 -5.901,7.445c-1.041,-1.217 -2.54,-2.528 -4.584,-2.812c-1.441,-0.206 -8.373,-1.025 -12.078,-1.025c-0.338,-0 -0.704,0.013 -1.09,0.022c-0.385,-0.009 -0.756,-0.022 -1.105,-0.022c-3.703,-0 -10.634,0.819 -12.074,1.025c-2.034,0.284 -3.541,1.595 -4.584,2.812c-0.17,-0.105 -0.351,-0.225 -0.54,-0.36l0,5.818c0.404,0.131 0.794,0.219 1.163,0.26c0.921,0.107 1.877,-0.316 2.391,-1.106c0.692,-1.001 1.57,-2.151 2.326,-2.256c1.551,-0.229 8.11,-0.959 11.307,-0.973l-0,0.056c0.376,-0.009 0.753,-0.024 1.116,-0.024c0.355,0 0.727,0.015 1.11,0.024l-0,-0.056c3.184,0.014 9.76,0.744 11.313,0.973c0.745,0.105 1.635,1.255 2.318,2.256c0.524,0.79 1.467,1.213 2.386,1.106c3.635,-0.402 9.277,-5.369 11.394,-11.412c1.588,-4.497 1.238,-9.53 0.726,-12.582c4.303,4.179 8.988,11.2 8.204,16.675c-0.948,6.469 -6.677,10.577 -9.095,12.046c-1.662,1.013 -2.481,2.503 -2.266,4.041c0.242,1.364 1.288,2.419 2.768,2.743c1.764,0.398 4.301,-0.09 7.17,-1.397c2.275,-1.05 10.05,-3.038 13.636,-3.138c3.801,-0.115 9.898,0.706 14.432,3.275c2.296,1.291 4.395,2.035 6.092,2.472c-1.42,2.202 -3.631,5.211 -6.546,7.859" style="fill:#fff;fill-rule:nonzero;"/><path d="M120.075,123.462c-5.318,0.159 -9.636,3.508 -9.636,7.479c-0,3.962 4.318,7.309 9.636,7.472c5.302,-0.163 9.623,-3.51 9.623,-7.472c0,-3.971 -4.312,-7.32 -9.623,-7.479Zm30.961,13.289l0,-12.539c-0.858,-2.068 -2.145,-3.903 -3.537,-5.497c1.231,0.13 2.409,0.131 3.537,0.002l0,-4.261c-0.552,0.092 -1.123,0.137 -1.715,0.137c-2.461,0 -5.4,-0.784 -8.987,-2.399l-2.279,3.486c0.46,0.429 1.027,0.906 1.677,1.466c2.747,2.314 6.892,5.826 7.939,10.196c1.571,6.533 -1.202,11.402 -8.266,14.446c-3.929,1.701 -8.844,2.829 -14.243,3.272l-0.728,0.066c-0.747,0.039 -1.559,0.078 -2.45,0.109l-0.195,0c-0.191,0.006 -0.365,0.006 -0.544,0.006l-0.573,0c-0.198,0 -0.395,-0.006 -0.597,-0.006c-0.2,0 -0.407,0.006 -0.615,0.006l-0.561,0c-0.176,0 -0.36,0 -0.546,-0.006l-0.166,0c-0.839,-0.026 -1.569,-0.054 -2.255,-0.096l-0.955,-0.079c-5.401,-0.443 -10.316,-1.571 -14.242,-3.275c-7.063,-3.051 -9.84,-7.91 -8.267,-14.443c1.055,-4.37 5.194,-7.882 7.926,-10.196c0.668,-0.56 1.23,-1.037 1.697,-1.466l-2.282,-3.486c-3.589,1.615 -6.527,2.399 -8.978,2.399c-3.134,0 -5.669,-1.26 -8.002,-3.951c-3.968,-4.576 -4.676,-9.728 -5.245,-13.887c-0.114,-0.801 -0.212,-1.551 -0.343,-2.258c-0.256,-1.613 -0.717,-3.171 -1.2,-4.528c0.974,0.268 2.031,0.509 3.117,0.685c1.641,0.277 3.65,0.277 5.978,0.277c3.188,-0 6.8,-0 9.84,0.745c3.449,0.825 5.741,2.884 7.582,4.543c0.796,0.716 1.497,1.334 2.182,1.772c2.33,1.456 7.215,1.969 9.921,2.161l2.238,0.119l-0,-0.072l1.186,0.055c0.671,0.017 1.321,0.025 1.96,0.039l0.052,-0c0.645,-0.014 1.289,-0.022 1.954,-0.039l1.189,-0.055l0,0.102l2.234,-0.149c2.709,-0.192 7.601,-0.705 9.927,-2.161c0.697,-0.438 1.383,-1.056 2.18,-1.772c1.842,-1.659 4.137,-3.718 7.58,-4.543c1.826,-0.447 3.856,-0.626 5.875,-0.697l0,-4.232c-2.292,0.076 -4.646,0.277 -6.859,0.821c-4.454,1.073 -7.418,3.736 -9.38,5.5c-0.623,0.557 -1.209,1.092 -1.587,1.326c-0.62,0.385 -2.785,1.098 -7.046,1.47l-0.921,0.035c-0.584,0.031 -1.218,0.048 -1.904,0.064l-1.437,0.064c-0.634,0.022 -1.23,0.025 -1.827,0.042c-0.597,-0.017 -1.202,-0.02 -1.84,-0.054l-1.414,-0.046c-0.703,-0.022 -1.329,-0.039 -1.933,-0.07l-0.67,-0.016c-4.414,-0.36 -6.656,-1.094 -7.292,-1.494c-0.377,-0.229 -0.964,-0.764 -1.587,-1.325c-1.955,-1.76 -4.923,-4.423 -9.375,-5.496c-3.524,-0.866 -7.412,-0.866 -10.822,-0.866c-2.067,0 -4.011,-0.01 -5.324,-0.22c-3.394,-0.557 -6.749,-1.956 -6.783,-1.968l-5.538,-2.326l2.902,5.297c0.024,0.046 2.064,3.809 2.725,7.726c0.11,0.641 0.207,1.365 0.31,2.13c0.613,4.46 1.453,10.568 6.244,16.084c3.569,4.121 7.797,5.839 12.961,5.29c-1.856,2.122 -3.526,4.672 -4.236,7.628c-1.2,4.97 -1.404,14.099 10.689,19.334c3.846,1.667 8.523,2.831 13.625,3.411l-0,0.046l1.928,0.148c1.024,0.077 2.112,0.133 3.44,0.174c0.053,0 0.108,0.009 0.181,0.009c0.408,0.006 0.823,0.006 1.227,0l1.149,0c0.194,0 0.405,0.006 0.603,0.006c0.21,0 0.426,-0.006 0.657,-0.006c0.048,0 0.104,-0.009 0.173,-0.014c1.311,-0.036 2.397,-0.092 3.419,-0.169l1.939,-0.158l-0,-0.036c5.095,-0.58 9.764,-1.744 13.614,-3.411c5.574,-2.412 8.534,-5.649 9.989,-8.926Zm-30.961,5.886l-0.058,-0.006c-7.717,-0.208 -13.766,-5.352 -13.766,-11.69c-0,-6.36 6.049,-11.503 13.766,-11.707l0.115,-0c7.713,0.204 13.754,5.347 13.754,11.707c-0,6.338 -6.041,11.482 -13.754,11.69l-0.057,0.006Z" style="fill:#fff;fill-rule:nonzero;"/><path d="M117.789,130.166c-0,0.748 -0.585,1.345 -1.32,1.345c-0.739,-0 -1.333,-0.597 -1.333,-1.345c0,-0.738 0.594,-1.334 1.333,-1.334c0.735,0 1.32,0.596 1.32,1.334" style="fill:#fff;fill-rule:nonzero;"/><path d="M125.013,130.166c-0,0.748 -0.601,1.345 -1.328,1.345c-0.739,-0 -1.332,-0.597 -1.332,-1.345c0,-0.738 0.593,-1.334 1.332,-1.334c0.727,0 1.328,0.596 1.328,1.334" style="fill:#fff;fill-rule:nonzero;"/><path d="M474.405,30.85c-0,-6.956 -3.394,-10.866 -6.244,-12.92c-3.45,-2.494 -8.021,-3.706 -13.974,-3.706c-5.878,-0 -10.409,1.185 -13.849,3.622c-2.709,-2.376 -5.913,-3.622 -9.36,-3.622c-0.38,-0 -0.755,0.005 -1.124,0.017l0,-0.017l-45.574,-0l-0,1.336c-1.844,-0.882 -3.834,-1.336 -5.91,-1.336c-0.381,-0 -0.753,0.005 -1.121,0.017l-0,-0.017l-24.318,-0l0,1.239c-2.574,-0.83 -5.563,-1.239 -9.021,-1.239c-5.949,-0 -10.52,1.212 -13.973,3.706c-0.191,0.137 -0.387,0.287 -0.587,0.442c-0.19,-0.155 -0.387,-0.305 -0.58,-0.442c-3.45,-2.494 -8.023,-3.706 -13.975,-3.706c-5.944,-0 -10.509,1.207 -13.957,3.694c-2.733,-2.42 -5.972,-3.694 -9.453,-3.694c-0.379,-0 -0.753,0.005 -1.125,0.017l0,-0.017l-24.317,-0l0,1.239c-2.575,-0.83 -5.561,-1.239 -9.017,-1.239c-5.869,-0 -10.388,1.179 -13.822,3.6c-0.385,-0.321 -0.782,-0.633 -1.21,-0.914c-3.11,-2.048 -6.843,-3.091 -11.091,-3.091c-1.298,0 -2.556,0.132 -3.768,0.405l-8.32,-0c-0.202,-2.979 -1.388,-5.643 -3.468,-7.743c-2.291,-2.314 -5.213,-3.533 -8.455,-3.533c-0.677,-0 -1.345,0.055 -1.997,0.161l0,-1.003l-39.653,0l0,100.357c-0.055,0.929 -0.055,1.711 -0.055,2.248l0,38.36c0,6.735 2.102,11.537 6.249,14.271c3.195,2.105 7.029,3.175 11.4,3.175c1.343,-0 2.639,-0.139 3.89,-0.422l19.996,-0l-0,-1.512c3.003,1.296 6.614,1.934 10.935,1.934c6.188,-0 10.933,-1.306 14.501,-3.994c2.862,-2.148 6.267,-6.23 6.267,-13.452l0,-4.409l37.909,0l0,4.652c0,7.083 3.344,11.088 6.15,13.198c3.49,2.629 8.123,3.91 14.154,3.91c5.824,0 10.331,-1.191 13.781,-3.627c2.585,2.59 6.584,4.341 12.394,4.341c2.261,-0 4.274,-0.227 6.042,-0.676l34.377,-0l-0,-21.798l6.583,0l-0,21.798l41.537,-0l-0,-1.323c2.914,1.169 6.375,1.745 10.477,1.745c6.188,-0 10.933,-1.308 14.505,-3.995c0.441,-0.33 0.892,-0.712 1.347,-1.145c0.454,0.433 0.909,0.815 1.35,1.145c3.572,2.687 8.316,3.995 14.504,3.995c6.187,-0 10.932,-1.308 14.5,-3.995c2.861,-2.147 6.414,-6.378 6.414,-13.595l0,-4.63l0.027,0l-0,-69.364c0.016,-0.35 0.029,-0.703 0.029,-1.075l-0,-37.373Z" style="fill:#0362a2;fill-rule:nonzero;"/><path d="M211.657,21.347l-10.092,-0l0,56.38l10.092,0l-0,-56.38Zm-10.172,-6.127c0,-1.367 0.533,-2.57 1.592,-3.605c1.065,-1.03 2.306,-1.549 3.714,-1.549c1.356,-0 2.513,0.486 3.471,1.449c0.955,0.97 1.432,2.177 1.432,3.628c-0,1.474 -0.499,2.718 -1.494,3.723c-0.994,1.008 -2.197,1.512 -3.606,1.512c-1.41,-0 -2.615,-0.516 -3.611,-1.551c-0.997,-1.031 -1.498,-2.232 -1.498,-3.607" style="fill:#fff;fill-rule:nonzero;"/><path d="M227.809,27.789c-1.966,-0 -2.952,1.016 -2.952,3.062l-0,31.33c-0,2.045 0.986,3.063 2.952,3.063c1.969,0 2.95,-1.018 2.95,-3.063l0,-31.33c0,-2.046 -0.981,-3.062 -2.95,-3.062Zm2.995,-6.847c2.868,-0 5.281,0.641 7.233,1.932c1.959,1.291 2.935,3.95 2.935,7.977l0,31.33c0,4.081 -0.815,6.69 -2.436,7.815c-1.62,1.129 -3.455,1.695 -5.5,1.695c-3.353,0 -6.077,-0.593 -8.179,-1.772l-0,7.808l-10.211,-0l0,-56.38l10.211,-0l-0,1.566c1.728,-1.313 3.707,-1.971 5.947,-1.971" style="fill:#fff;fill-rule:nonzero;"/><path d="M259.877,43.091l0,-12.24c0,-2.046 -0.986,-3.062 -2.951,-3.062c-1.97,-0 -2.949,1.016 -2.949,3.062l0,12.24l5.9,0Zm10.21,6.446l-16.11,0l0,18.687c0,2.043 0.979,3.062 2.949,3.062c1.965,0 2.952,-1.019 2.952,-3.062l-0,-14.859l10.209,-0l-0,14.859c-0,6.606 -4.39,9.908 -13.161,9.908c-8.775,-0 -13.161,-3.302 -13.161,-9.908l-0,-37.373c-0,-6.336 4.386,-9.504 13.161,-9.504c8.771,-0 13.161,3.168 13.161,9.504l-0,18.686Z" style="fill:#fff;fill-rule:nonzero;"/><path d="M299.324,43.091l-10.215,0l0,-12.24c0,-2.046 -0.98,-3.062 -2.948,-3.062c-1.969,-0 -2.956,1.016 -2.956,3.062l0,46.876l-10.209,-0l0,-56.38l10.209,-0l0,1.931c1.97,-1.291 4.695,-1.931 8.18,-1.931c2.046,-0 3.88,0.869 5.502,2.614c1.626,1.743 2.437,4.043 2.437,6.89l-0,12.24Z" style="fill:#fff;fill-rule:nonzero;"/><path d="M327.958,43.091l-10.212,0l-0,-12.24c-0,-2.046 -0.982,-3.062 -2.951,-3.062c-1.969,-0 -2.951,1.016 -2.951,3.062l-0,37.373c-0,2.043 0.982,3.062 2.951,3.062c1.969,0 2.951,-1.019 2.951,-3.062l-0,-18.687l10.212,0l0,18.687c0,6.606 -4.386,9.908 -13.163,9.908c-8.775,-0 -13.16,-3.302 -13.16,-9.908l-0,-37.373c-0,-6.336 4.385,-9.504 13.16,-9.504c8.777,-0 13.163,3.168 13.163,9.504l0,12.24Z" style="fill:#fff;fill-rule:nonzero;"/><path d="M346.862,43.091l-0,-12.24c-0,-2.046 -0.986,-3.062 -2.952,-3.062c-1.966,-0 -2.95,1.016 -2.95,3.062l-0,12.24l5.902,0Zm10.215,6.446l-16.117,0l-0,18.687c-0,2.043 0.984,3.062 2.95,3.062c1.966,0 2.952,-1.019 2.952,-3.062l0,-14.859l10.215,-0l-0,14.859c-0,6.606 -4.392,9.908 -13.167,9.908c-8.773,-0 -13.159,-3.302 -13.159,-9.908l-0,-37.373c-0,-6.336 4.386,-9.504 13.159,-9.504c8.775,-0 13.167,3.168 13.167,9.504l-0,18.686Z" style="fill:#fff;fill-rule:nonzero;"/><path d="M386.307,77.727l-10.21,0l0,-46.876c0,-2.046 -0.982,-3.062 -2.952,-3.062c-1.967,-0 -2.95,1.016 -2.95,3.062l0,46.876l-10.212,0l-0,-56.38l10.212,-0l0,1.931c1.97,-1.291 4.692,-1.931 8.176,-1.931c2.05,-0 3.882,0.869 5.506,2.614c1.62,1.743 2.43,4.044 2.43,6.89l-0,46.876Z" style="fill:#fff;fill-rule:nonzero;"/><path d="M409.444,39.872l-7.902,-0l-0,25.777c-0,3.759 0.984,5.637 2.952,5.637l4.95,0l0,6.441l-4.95,0c-4.944,0 -8.374,-0.969 -10.287,-2.918c-1.913,-1.945 -2.874,-5.002 -2.874,-9.16l-0,-25.777l-3.034,-0l0,-6.446l3.034,0l-0,-12.079l10.209,-0l-0,12.079l7.902,0l0,6.446Z" style="fill:#fff;fill-rule:nonzero;"/><path d="M438.918,43.091l-10.213,0l-0,-12.24c-0,-2.046 -0.988,-3.062 -2.954,-3.062c-1.966,-0 -2.949,1.016 -2.949,3.062l0,46.876l-10.212,-0l-0,-56.38l10.212,-0l0,1.931c1.966,-1.291 4.691,-1.931 8.176,-1.931c2.047,-0 3.881,0.869 5.505,2.614c1.619,1.743 2.435,4.043 2.435,6.89l-0,12.24Z" style="fill:#fff;fill-rule:nonzero;"/><path d="M457.142,68.223l0,-37.373c0,-2.045 -0.986,-3.061 -2.955,-3.061c-1.962,-0 -2.949,1.016 -2.949,3.061l0,37.373c0,2.044 0.987,3.064 2.949,3.064c1.969,-0 2.955,-1.02 2.955,-3.064Zm-16.113,0l0,-37.373c0,-6.336 4.388,-9.503 13.158,-9.503c8.775,-0 13.166,3.167 13.166,9.503l0,37.373c0,6.607 -4.391,9.908 -13.166,9.908c-8.77,0 -13.158,-3.301 -13.158,-9.908" style="fill:#fff;fill-rule:nonzero;"/><path d="M185.852,146.259c2.051,0 3.076,-1.062 3.076,-3.188l0,-38.361c0,-2.127 -1.025,-3.189 -3.076,-3.189c-2.047,-0 -3.071,1.062 -3.071,3.189l0,38.361c0,2.126 1.024,3.188 3.071,3.188Zm-3.116,7.135c-2.993,0 -5.506,-0.67 -7.544,-2.011c-2.037,-1.345 -3.053,-4.116 -3.053,-8.312l0,-38.361c0,-4.253 0.846,-6.966 2.535,-8.14c1.689,-1.176 3.599,-1.761 5.737,-1.761c3.489,0 6.329,0.616 8.517,1.843l0,-14.893l10.642,-0l0,71.219l-10.642,-0l0,-1.638c-1.797,1.372 -3.867,2.054 -6.192,2.054" style="fill:#fff;fill-rule:nonzero;"/><path d="M220.633,116.88l-0,-12.757c-0,-2.124 -1.027,-3.189 -3.075,-3.189c-2.052,0 -3.077,1.065 -3.077,3.189l0,12.757l6.152,-0Zm10.639,6.718l-16.791,-0l0,19.473c0,2.126 1.025,3.188 3.077,3.188c2.048,0 3.075,-1.062 3.075,-3.188l-0,-15.486l10.639,0l-0,15.486c-0,6.883 -4.57,10.323 -13.714,10.323c-9.145,0 -13.717,-3.44 -13.717,-10.323l0,-38.948c0,-6.607 4.572,-9.907 13.717,-9.907c9.144,-0 13.714,3.3 13.714,9.907l-0,19.475Z" style="fill:#fff;fill-rule:nonzero;"/><path d="M330.234,143.434l0,-21.405c-4.127,0.67 -6.178,1.906 -6.148,3.694l-0,17.711c-0,2.128 1.021,3.192 3.071,3.192c2.052,-0 3.077,-1.064 3.077,-3.192Zm10.641,9.905l-10.641,0l0,-1.884c-0.828,1.706 -3.34,2.56 -7.521,2.56c-6.179,-0 -9.272,-2.466 -9.272,-7.389l-0,-18.847c-0,-2.183 0.718,-4.082 2.144,-5.703c1.426,-1.626 4.509,-3.652 9.248,-6.088c3.295,-1.402 5.1,-2.521 5.401,-3.358l0,-8.146c0,-2.122 -1.025,-3.191 -3.077,-3.191c-2.05,-0 -3.071,1.069 -3.071,3.191l-0,8.983l-10.645,-0l-0,-8.983c-0,-6.601 4.573,-9.903 13.716,-9.903c9.15,0 13.718,3.302 13.718,9.903l-0,48.855Z" style="fill:#fff;fill-rule:nonzero;"/><path d="M372.872,117.243l-10.643,-0l-0,-12.759c-0,-2.122 -1.026,-3.192 -3.075,-3.192c-2.05,0 -3.074,1.07 -3.074,3.192l-0,48.856l-10.642,-0l-0,-58.759l10.642,0l-0,2.016c2.051,-1.345 4.89,-2.016 8.519,-2.016c2.135,0 4.044,0.909 5.733,2.731c1.693,1.815 2.54,4.209 2.54,7.172l0,12.759Z" style="fill:#fff;fill-rule:nonzero;"/><path d="M404.201,153.34l-10.643,-0l0,-48.856c0,-2.122 -1.023,-3.192 -3.076,-3.192c-2.05,0 -3.076,1.07 -3.076,3.192l0,48.856l-10.636,-0l0,-58.759l10.637,0l-0,2.016c2.05,-1.345 4.892,-2.016 8.522,-2.016c2.133,0 4.048,0.909 5.734,2.731c1.692,1.815 2.538,4.208 2.538,7.172l-0,48.856Z" style="fill:#fff;fill-rule:nonzero;"/><path d="M424.805,117.243l0,-12.759c0,-2.122 -1.025,-3.192 -3.075,-3.192c-2.052,0 -3.073,1.07 -3.073,3.192l0,12.759l6.148,-0Zm10.64,6.719l-16.788,0l0,19.472c0,2.128 1.021,3.192 3.073,3.192c2.05,0 3.075,-1.064 3.075,-3.192l0,-15.484l10.64,-0l0,15.484c0,6.886 -4.571,10.325 -13.715,10.325c-9.145,0 -13.717,-3.439 -13.717,-10.325l0,-38.95c0,-6.601 4.572,-9.903 13.717,-9.903c9.144,0 13.715,3.302 13.715,9.903l0,19.478Z" style="fill:#fff;fill-rule:nonzero;"/><path d="M439.719,133.744l10.64,0l-0,9.69c-0,2.128 1.025,3.193 3.076,3.193c2.047,-0 3.078,-1.065 3.078,-3.193c-0,-5.204 -2.095,-10.432 -6.282,-15.693c-4.18,-5.263 -6.981,-8.641 -8.396,-10.136c-1.408,-1.502 -2.116,-3.551 -2.116,-6.154l-0,-6.967c-0,-6.601 4.573,-9.903 13.716,-9.903c9.144,0 13.718,3.302 13.718,9.903l-0,9.615l-10.64,-0l-0,-9.615c-0,-2.122 -1.031,-3.192 -3.078,-3.192c-2.051,0 -3.076,1.07 -3.076,3.192c-0.109,3.866 0.373,6.408 1.457,7.642c1.079,1.231 3.904,4.769 8.475,10.618c4.574,5.847 6.862,10.407 6.862,13.684l-0,7.006c-0,6.886 -4.574,10.325 -13.718,10.325c-9.143,-0 -13.716,-3.439 -13.716,-10.325l-0,-9.69Z" style="fill:#fff;fill-rule:nonzero;"/><path d="M187.922,9.229l-0,14.367c-1.031,0.104 -1.973,0.271 -2.834,0.514c-0.869,-0.243 -1.802,-0.41 -2.84,-0.514l0,-14.367l-9.815,-0l-0,68.498l9.815,0l0,-45.082c0,-0.859 0.187,-1.524 0.549,-2.006c0.472,-0.613 1.227,-0.934 2.291,-0.934c1.054,0 1.825,0.321 2.277,0.934c0.367,0.482 0.557,1.147 0.557,2.006l-0,45.082l9.82,0l0,-68.498l-9.82,-0Z" style="fill:#fff;fill-rule:nonzero;"/><path d="M309.809,103.032l-10.295,0l0,-12.339c0,-2.06 -0.981,-3.09 -2.976,-3.09c-1.982,-0 -2.97,1.03 -2.97,3.09l-0,52.622c-0,2.058 0.988,3.078 2.97,3.078c1.995,0 2.976,-1.02 2.976,-3.078l0,-18.836l10.295,0l0,18.836c0,6.661 -4.425,9.985 -13.271,9.985c-8.831,-0 -13.253,-3.324 -13.253,-9.985l0,-52.622c0,-6.39 4.422,-9.582 13.253,-9.582c8.846,0 13.271,3.192 13.271,9.582l0,12.339Z" style="fill:#fff;fill-rule:nonzero;"/></svg>